<svg width="341" height="59" viewBox="0 0 341 59" fill="none" xmlns="http://www.w3.org/2000/svg">
<path fill-rule="evenodd" clip-rule="evenodd" d="M145.06 15.66C143.99 15.66 143.54 16.63 143.46 17.34H146.48C146.49 16.7 146.21 15.66 145.06 15.66ZM77.75 19.42C77.75 20.09 78.19 20.4 78.73 20.4C79.43 20.4 79.93 19.95 80.1 19.46C80.14 19.33 80.14 19.21 80.14 19.08V18.14C78.92 18.12 77.74 18.38 77.74 19.42H77.75ZM111.05 15.73C109.83 15.73 109.33 16.93 109.33 18.07C109.33 19.39 110 20.39 111.03 20.39C112.03 20.39 112.71 19.43 112.71 18.04C112.71 16.97 112.23 15.74 111.05 15.74V15.73ZM99.42 15.66C98.36 15.66 97.9 16.63 97.83 17.34H100.85C100.85 16.7 100.58 15.66 99.42 15.66ZM86.97 15.83C86.27 15.83 85.62 16.33 85.43 17.1C85.4 17.22 85.38 17.38 85.38 17.55V18.65C85.3747 18.8608 85.4116 19.0706 85.4886 19.2669C85.5656 19.4633 85.6811 19.6422 85.8284 19.7932C85.9756 19.9441 86.1516 20.0641 86.346 20.146C86.5403 20.2279 86.7491 20.2701 86.96 20.27C88.04 20.27 88.7 19.42 88.7 18.03C88.7 16.82 88.12 15.83 86.97 15.83ZM148.07 38.21H139.2C139.181 38.7741 139.287 39.3354 139.51 39.854C139.733 40.3725 140.068 40.8355 140.49 41.21C141.23 41.83 142.19 42.14 143.39 42.14C144.7 42.14 145.89 41.94 146.97 41.51L147.44 43.57C146.18 44.12 144.69 44.38 142.97 44.38C140.91 44.38 139.29 43.78 138.12 42.57C137.515 41.9134 137.047 41.1428 136.743 40.3032C136.439 39.4635 136.305 38.5718 136.35 37.68C136.35 35.68 136.9 34.01 137.99 32.67C138.546 31.9753 139.257 31.4207 140.067 31.0508C140.876 30.6809 141.761 30.5059 142.65 30.54C144.57 30.54 146.02 31.24 147 32.67C147.818 33.9145 148.23 35.3817 148.18 36.87C148.18 37.39 148.14 37.84 148.07 38.21ZM135.87 17.38V21.48H134.14V11.5H135.87V15.56H135.9C136.1 15.24 136.4 14.97 136.75 14.79C137.1 14.59 137.51 14.48 137.95 14.48C139.12 14.48 140.35 15.25 140.35 17.45V21.49H138.61V17.63C138.61 16.65 138.24 15.89 137.29 15.89C136.61 15.89 136.13 16.34 135.94 16.86C135.88 17.01 135.87 17.19 135.87 17.38ZM135.42 33.44C135.12 33.39 134.82 33.36 134.49 33.36C134.022 33.3392 133.556 33.4363 133.134 33.6425C132.713 33.8487 132.351 34.1573 132.08 34.54C131.563 35.3131 131.303 36.2304 131.34 37.16V44.14H128.38V35.02C128.38 33.5 128.36 32.1 128.31 30.84H130.88L130.98 33.38H131.07C131.37 32.51 131.87 31.81 132.55 31.28C133.165 30.822 133.913 30.5764 134.68 30.58C134.96 30.58 135.2 30.58 135.42 30.62V33.44ZM127.83 14.64H128.8V13.35L130.5 12.87V14.63H132.15V15.93H130.5V18.95C130.5 19.8 130.73 20.22 131.39 20.22C131.69 20.22 131.87 20.2 132.07 20.15L132.09 21.45C131.84 21.55 131.38 21.65 130.84 21.65C130.19 21.65 129.67 21.43 129.35 21.08C128.97 20.68 128.8 20.05 128.8 19.15V15.93H127.83V14.63V14.64ZM124.78 42.42C124.162 43.0914 123.406 43.62 122.563 43.9689C121.72 44.3178 120.811 44.4785 119.9 44.44C119.027 44.4788 118.156 44.3251 117.349 43.9898C116.542 43.6546 115.819 43.146 115.23 42.5C114.053 41.145 113.435 39.3936 113.5 37.6C113.5 35.54 114.1 33.85 115.29 32.54C115.902 31.8812 116.65 31.3637 117.483 31.0235C118.315 30.6833 119.212 30.5285 120.11 30.57C122.08 30.57 123.64 31.21 124.83 32.51C125.996 33.8577 126.604 35.5994 126.53 37.38C126.603 39.2206 125.978 41.021 124.78 42.42ZM110.98 21.64C109.05 21.64 107.55 20.32 107.55 18.11C107.55 15.86 109.02 14.48 111.09 14.48C113.13 14.48 114.49 15.91 114.49 18C114.49 20.52 112.72 21.64 110.98 21.64ZM112.65 33.05H109.38V39.52C109.38 41.16 109.96 41.97 111.11 41.97C111.64 41.97 112.08 41.94 112.43 41.85L112.51 44.08C111.93 44.3 111.16 44.41 110.21 44.41C109.706 44.4396 109.201 44.3603 108.73 44.1774C108.258 43.9945 107.832 43.7123 107.48 43.35C106.81 42.64 106.48 41.45 106.48 39.76V33.06H104.54V30.84H106.49V28.4L109.39 27.53V30.83H112.65V33.05ZM102.23 42.8C101.02 43.88 99.35 44.41 97.2 44.41C95.5298 44.488 93.8719 44.0891 92.42 43.26L93.11 40.8C94.3992 41.563 95.8719 41.9606 97.37 41.95C98.49 41.95 99.35 41.7 99.97 41.2C100.59 40.7 100.9 40.03 100.9 39.18C100.9 38.44 100.64 37.81 100.14 37.3C99.3952 36.6585 98.5276 36.1753 97.59 35.88C94.36 34.68 92.75 32.91 92.75 30.6C92.75 29.08 93.31 27.84 94.45 26.87C95.7411 25.8517 97.3578 25.3364 99 25.42C100.68 25.42 102.07 25.72 103.19 26.29L102.44 28.7C101.35 28.1231 100.133 27.8307 98.9 27.85C97.86 27.85 97.04 28.12 96.45 28.62C95.96 29.08 95.72 29.64 95.72 30.29C95.72 31.02 96 31.62 96.56 32.1C97.06 32.54 97.96 33.01 99.24 33.52C100.57 33.9846 101.772 34.7553 102.75 35.77C103.508 36.6602 103.908 37.8011 103.87 38.97C103.87 40.54 103.32 41.82 102.24 42.8H102.23ZM87.35 21.64C86.46 21.64 85.67 21.3 85.18 20.46H85.15L85.07 21.49H83.59C83.62 21.02 83.65 20.26 83.65 19.56V11.5H85.38V15.58H85.4C85.6394 15.2211 85.9682 14.9309 86.354 14.738C86.7398 14.5451 87.1693 14.4562 87.6 14.48C89.27 14.48 90.47 15.88 90.46 17.95C90.46 20.42 88.9 21.65 87.35 21.65V21.64ZM85.32 42.7C84.7988 43.2639 84.1638 43.7106 83.457 44.0106C82.7502 44.3106 81.9877 44.4569 81.22 44.44C79.45 44.44 78.19 43.81 77.42 42.55V49.54H74.46V35.2C74.46 33.78 74.43 32.32 74.36 30.83H76.95L77.12 32.93H77.17C77.6339 32.1656 78.2965 31.5414 79.0872 31.124C79.878 30.7066 80.7672 30.5117 81.66 30.56C83.23 30.56 84.54 31.18 85.59 32.42C86.6899 33.8091 87.2478 35.5504 87.16 37.32C87.16 39.59 86.55 41.37 85.32 42.69V42.7ZM72.05 21.49H73.78V11.49H72.05V21.49ZM70.7 42.69C70.1797 43.2557 69.5451 43.7043 68.8383 44.006C68.1314 44.3077 67.3684 44.4557 66.6 44.44C64.84 44.44 63.57 43.81 62.8 42.55V49.54H59.85V35.2C59.85 33.78 59.81 32.32 59.74 30.83H62.34L62.5 32.93H62.55C63.0147 32.164 63.6789 31.5389 64.4716 31.1214C65.2642 30.7039 66.1555 30.5099 67.05 30.56C68.61 30.56 69.92 31.18 70.98 32.42C72.0766 33.8108 72.6341 35.5508 72.55 37.32C72.55 39.59 71.94 41.37 70.7 42.69ZM59.13 19.6C59.13 17.88 60.66 17 63.19 17.01V16.9C63.19 16.45 63.01 15.7 61.8 15.7C61.12 15.7 60.42 15.91 59.96 16.21L59.62 15.08C60.12 14.78 61.02 14.48 62.1 14.48C64.29 14.48 64.92 15.88 64.92 17.38V19.84C64.92 20.46 64.95 21.06 65.04 21.49H63.47L63.35 20.73H63.31C63.0648 21.0281 62.754 21.2654 62.4018 21.4232C62.0496 21.5811 61.6657 21.6553 61.28 21.64C59.9 21.64 59.13 20.64 59.13 19.6ZM55.56 21.49H53.86L51.31 14.63H53.19L54.29 18.11C54.49 18.71 54.63 19.26 54.76 19.83H54.81C54.93 19.26 55.09 18.73 55.27 18.11L56.37 14.63H58.18L55.56 21.49ZM54.89 44.14L53.17 38.73H47.17L45.53 44.14H42.47L48.4 25.7H52.07L58.04 44.15H54.9L54.89 44.14ZM34 43.44C34 44.2436 33.6808 45.0143 33.1125 45.5825C32.5443 46.1508 31.7736 46.47 30.97 46.47H17.97C17.1681 46.47 16.3989 46.1521 15.831 45.5861C15.263 45.02 14.9426 44.2519 14.94 43.45V14.57C14.9426 13.7655 15.2641 12.9948 15.8339 12.4268C16.4038 11.8589 17.1755 11.54 17.98 11.54H30.98C31.7811 11.5453 32.5477 11.8665 33.1132 12.4339C33.6787 13.0013 33.9974 13.7689 34 14.57V43.45V43.44ZM45.53 12H47.73L50.82 21.49H48.95L48.09 18.79H45.09L44.27 21.49H42.5L45.53 12ZM67.6 21.5H69.33V14.64H67.6V21.5ZM68.47 11.79C69.07 11.79 69.43 12.19 69.44 12.73C69.44 13.23 69.06 13.66 68.46 13.66C68.335 13.6654 68.2102 13.6453 68.0933 13.6009C67.9763 13.5565 67.8697 13.4887 67.7798 13.4016C67.6899 13.3146 67.6188 13.2101 67.5707 13.0947C67.5226 12.9792 67.4985 12.8551 67.5 12.73C67.5 12.2 67.9 11.79 68.47 11.79ZM78.7 15.7C78.03 15.7 77.33 15.91 76.86 16.21L76.52 15.08C77.03 14.78 77.92 14.48 79 14.48C81.2 14.48 81.83 15.88 81.83 17.38V19.84C81.83 20.46 81.86 21.06 81.94 21.49H80.38L80.25 20.73H80.21C79.9659 21.0267 79.6566 21.2632 79.3063 21.421C78.956 21.5788 78.574 21.6537 78.19 21.64C76.81 21.64 76.03 20.64 76.03 19.6C76.03 17.88 77.56 17 80.1 17.01V16.9C80.1 16.45 79.91 15.7 78.7 15.7ZM92.43 21.49H94.16V11.49H92.43V21.49ZM99.53 14.48C101.75 14.48 102.48 16.31 102.48 17.81C102.48 18.14 102.45 18.39 102.42 18.55H97.83C97.88 19.78 98.83 20.32 99.94 20.32C100.74 20.32 101.31 20.19 101.84 20.01L102.1 21.19C101.5 21.44 100.69 21.63 99.7 21.63C97.48 21.63 96.17 20.26 96.17 18.17C96.17 16.27 97.33 14.47 99.52 14.47L99.53 14.48ZM117.69 14.63L117.78 15.66H117.82C118.052 15.2885 118.377 14.9841 118.763 14.7771C119.149 14.5701 119.582 14.4677 120.02 14.48C121.22 14.48 122.45 15.25 122.45 17.42V21.49H120.72V17.62C120.72 16.63 120.35 15.89 119.42 15.89C118.72 15.89 118.24 16.38 118.06 16.89C118 17.04 117.98 17.25 117.98 17.45V21.49H116.25V16.67C116.25 15.89 116.22 15.22 116.19 14.63H117.69ZM145.16 14.48C147.38 14.48 148.11 16.31 148.11 17.81C148.11 18.14 148.08 18.39 148.05 18.55H143.47C143.51 19.78 144.47 20.32 145.57 20.32C146.38 20.32 146.94 20.19 147.47 20.01L147.73 21.19C147.14 21.44 146.33 21.63 145.33 21.63C143.12 21.63 141.81 20.26 141.81 18.17C141.81 16.27 142.96 14.47 145.16 14.47V14.48ZM47.06 15.15C46.88 14.58 46.72 13.93 46.58 13.38H46.56C46.41 13.93 46.26 14.59 46.1 15.15L45.37 17.49H47.81L47.06 15.15ZM63.19 19.46C63.23 19.33 63.23 19.21 63.23 19.08V18.14C62.01 18.12 60.84 18.38 60.84 19.42C60.84 20.09 61.28 20.4 61.83 20.4C62.53 20.4 63.03 19.95 63.19 19.46ZM142.43 32.59C141.46 32.59 140.68 33 140.07 33.79C139.567 34.4584 139.266 35.2562 139.2 36.09H145.36C145.395 35.2926 145.193 34.5028 144.78 33.82C144.535 33.4229 144.187 33.0992 143.774 32.8828C143.36 32.6664 142.896 32.5652 142.43 32.59ZM50.16 28.16H50.11C49.91 28.94 49.63 30.1 49.23 31.63L47.69 36.45H52.65L51.09 31.63C50.92 31.13 50.61 29.98 50.16 28.16ZM80.7 32.92C79.97 32.92 79.32 33.16 78.72 33.64C78.1311 34.1252 77.7225 34.7944 77.56 35.54C77.46 35.92 77.42 36.21 77.42 36.45V38.67C77.42 39.64 77.72 40.45 78.31 41.12C78.9 41.78 79.67 42.12 80.61 42.12C81.74 42.12 82.61 41.69 83.22 40.83C83.85 39.97 84.16 38.84 84.16 37.43C84.16 36.14 83.86 35.07 83.28 34.23C82.992 33.8151 82.6055 33.4782 82.1552 33.2496C81.7049 33.0209 81.2049 32.9077 80.7 32.92ZM120 32.73C118.82 32.73 117.92 33.26 117.3 34.32C116.77 35.18 116.5 36.25 116.5 37.5C116.5 38.73 116.77 39.77 117.3 40.64C117.558 41.1269 117.946 41.5326 118.421 41.8116C118.896 42.0907 119.439 42.232 119.99 42.22C121.11 42.22 121.99 41.69 122.63 40.61C123.18 39.73 123.46 38.67 123.46 37.45C123.46 36.23 123.19 35.18 122.66 34.31C122.408 33.827 122.027 33.4234 121.559 33.1444C121.091 32.8655 120.555 32.722 120.01 32.73H120ZM66.08 32.92C65.36 32.92 64.7 33.16 64.1 33.64C63.5111 34.1252 63.1025 34.7944 62.94 35.54C62.84 35.92 62.8 36.21 62.8 36.45V38.67C62.8 39.64 63.1 40.45 63.7 41.12C64.28 41.78 65.06 42.12 66 42.12C67.11 42.12 67.99 41.69 68.6 40.83C69.23 39.97 69.53 38.84 69.53 37.43C69.53 36.14 69.25 35.07 68.66 34.23C68.372 33.8151 67.9855 33.4782 67.5352 33.2496C67.0849 33.0209 66.5849 32.9077 66.08 32.92ZM16.78 40.38H32.16V17.64H16.78V40.38ZM24.48 41.73C24.0865 41.7615 23.7194 41.94 23.4516 42.23C23.1839 42.52 23.0352 42.9003 23.0352 43.295C23.0352 43.6897 23.1839 44.0699 23.4516 44.36C23.7194 44.65 24.0865 44.8285 24.48 44.86C24.8735 44.8285 25.2406 44.65 25.5084 44.36C25.7761 44.0699 25.9248 43.6897 25.9248 43.295C25.9248 42.9003 25.7761 42.52 25.5084 42.23C25.2406 41.94 24.8735 41.7615 24.48 41.73ZM22.97 15.33H25.97C26.17 15.33 26.34 15.16 26.34 14.97C26.34 14.77 26.18 14.61 25.98 14.61H22.97C22.77 14.61 22.61 14.77 22.61 14.97C22.61 15.17 22.77 15.32 22.97 15.32V15.33Z" fill="#FB3B2D"/>
<path fill-rule="evenodd" clip-rule="evenodd" d="M8.72 2.34998C7.20377 2.35262 5.7504 2.95611 4.67827 4.02824C3.60613 5.10038 3.00264 6.55375 3 8.06998V49.94C3.00528 51.4545 3.60994 52.9053 4.68179 53.9753C5.75364 55.0452 7.2055 55.6473 8.72 55.65H154.4C155.914 55.6473 157.366 55.0452 158.438 53.9753C159.51 52.9053 160.115 51.4545 160.12 49.94V8.06998C160.117 6.55375 159.514 5.10038 158.442 4.02824C157.37 2.95611 155.916 2.35262 154.4 2.34998H8.72ZM154.4 57.65H8.72C6.67507 57.6473 4.7145 56.8345 3.26758 55.3895C1.82066 53.9444 1.00529 51.9849 1 49.94L1 8.06998C1.00265 6.02332 1.81685 4.06124 3.26406 2.61403C4.71127 1.16683 6.67334 0.352622 8.72 0.349976H154.4C156.447 0.352622 158.409 1.16683 159.856 2.61403C161.303 4.06124 162.117 6.02332 162.12 8.06998V49.94C162.115 51.9849 161.299 53.9444 159.852 55.3895C158.406 56.8345 156.445 57.6473 154.4 57.65Z" fill="#FB3B2D"/>
<path fill-rule="evenodd" clip-rule="evenodd" d="M178.03 2.34998C176.314 2.34998 174.668 3.03163 173.455 4.24499C172.242 5.45835 171.56 7.10402 171.56 8.81997V49.13C171.56 52.7 174.46 55.6 178.03 55.6H332.01C335.57 55.6 338.47 52.7 338.47 49.13V8.81997C338.47 5.24998 335.57 2.34998 332.01 2.34998H178.03ZM332.01 57.6H178.03C175.784 57.5973 173.632 56.7041 172.044 55.1162C170.456 53.5284 169.563 51.3755 169.56 49.13V8.81997C169.56 4.14997 173.36 0.349976 178.03 0.349976H332.01C336.67 0.349976 340.47 4.14997 340.47 8.81997V49.13C340.47 53.8 336.67 57.6 332.01 57.6Z" fill="#FB3B2D"/>
<path fill-rule="evenodd" clip-rule="evenodd" d="M224.72 15.06C224.486 14.4106 224.286 13.7498 224.12 13.08H224.06C224.06 13.17 223.85 13.83 223.43 15.06H224.72ZM226.36 17.06H225.22C225.22 16.9 225.12 16.46 224.9 15.73H223.26C223.106 16.1612 222.995 16.6067 222.93 17.06H221.86C221.86 16.96 222.14 16.21 222.69 14.79C223.24 13.37 223.52 12.59 223.52 12.44H224.86C224.86 12.58 225.11 13.34 225.61 14.76C226.11 16.16 226.36 16.93 226.36 17.06ZM230.93 17.06H230.06C230.06 16.96 229.73 16.46 229.08 15.52C228.604 14.9096 228.213 14.2366 227.92 13.52H227.86C227.92 14.04 227.95 14.51 227.95 14.92C227.95 15.51 227.96 16.22 228 17.06H227.13C227.2 15.5208 227.2 13.9792 227.13 12.44H228.18C228.18 12.57 228.48 13.07 229.06 13.94C229.494 14.5265 229.853 15.1647 230.13 15.84H230.18C230.12 15.3 230.09 14.84 230.09 14.41C230.09 13.77 230.08 13.11 230.04 12.44H230.94C230.873 13.9792 230.873 15.5207 230.94 17.06H230.93ZM235.1 14.74C235.1 14.29 234.97 13.91 234.7 13.6C234.44 13.29 234.04 13.13 233.5 13.13L233.08 13.16C233.1 13.63 233.11 14.13 233.11 14.64C233.11 15.21 233.12 15.77 233.15 16.33C233.3 16.36 233.45 16.37 233.61 16.37C234.11 16.37 234.49 16.21 234.74 15.9C234.98 15.58 235.1 15.2 235.1 14.74ZM236.07 14.59C236.07 15.26 235.86 15.85 235.43 16.35C235 16.85 234.39 17.1 233.62 17.1C233.27 17.1 232.79 17.09 232.17 17.06C232.231 15.5206 232.231 13.9794 232.17 12.44H232.79C233.073 12.4419 233.357 12.4352 233.64 12.42C234.49 12.42 235.11 12.63 235.5 13.06C235.88 13.48 236.07 14 236.07 14.59ZM239.48 13.8C239.48 13.33 239.18 13.09 238.58 13.09C238.35 13.09 238.16 13.11 237.98 13.14C238.01 13.51 238.03 13.98 238.03 14.57L238.36 14.58C239.11 14.58 239.48 14.32 239.48 13.8ZM240.81 17.06H239.76C239.613 16.5198 239.402 15.9994 239.13 15.51C238.99 15.31 238.75 15.21 238.43 15.21H238.03C238.03 15.83 238.04 16.44 238.06 17.06H237.08C237.143 15.5206 237.143 13.9793 237.08 12.44H237.69C238.047 12.4442 238.404 12.4375 238.76 12.42C239.85 12.42 240.39 12.79 240.39 13.53C240.39 14.13 240.08 14.53 239.46 14.77V14.82C239.7 14.88 239.91 15.07 240.09 15.38C240.27 15.68 240.51 16.24 240.81 17.06ZM244.92 14.77C244.92 14.27 244.79 13.87 244.54 13.57C244.29 13.26 243.98 13.11 243.6 13.11C243.26 13.11 242.97 13.26 242.72 13.57C242.48 13.87 242.36 14.27 242.36 14.74C242.36 15.24 242.49 15.64 242.74 15.94C243 16.25 243.31 16.41 243.68 16.41C244.02 16.41 244.32 16.25 244.56 15.94C244.8 15.63 244.92 15.24 244.92 14.77ZM245.9 14.67C245.9 15.39 245.68 15.99 245.23 16.47C244.79 16.95 244.23 17.19 243.58 17.19C242.96 17.19 242.44 16.97 242.02 16.53C241.59 16.09 241.38 15.53 241.38 14.86C241.38 14.13 241.61 13.53 242.05 13.06C242.5 12.57 243.05 12.34 243.7 12.34C244.32 12.34 244.85 12.55 245.27 12.99C245.69 13.43 245.9 13.99 245.9 14.67ZM247.9 17.06H246.9C246.962 15.5206 246.962 13.9793 246.9 12.44H247.9C247.837 13.9793 247.837 15.5206 247.9 17.06ZM252.08 14.74C252.08 14.29 251.95 13.91 251.68 13.6C251.42 13.29 251.01 13.13 250.47 13.13L250.05 13.16C250.07 13.63 250.09 14.13 250.09 14.64C250.09 15.21 250.09 15.77 250.12 16.33C250.27 16.36 250.42 16.37 250.58 16.37C251.09 16.37 251.47 16.21 251.71 15.9C251.96 15.58 252.08 15.2 252.08 14.74ZM253.05 14.59C253.05 15.26 252.83 15.85 252.4 16.35C251.97 16.85 251.37 17.1 250.6 17.1C250.24 17.1 249.76 17.09 249.14 17.06C249.203 15.5206 249.203 13.9793 249.14 12.44H249.77C250.05 12.4418 250.33 12.4351 250.61 12.42C251.47 12.42 252.09 12.63 252.47 13.06C252.85 13.48 253.05 14 253.05 14.59ZM258.23 15.06C257.996 14.4106 257.796 13.7498 257.63 13.08H257.57C257.57 13.17 257.36 13.83 256.94 15.06H258.23ZM259.87 17.06H258.73C258.73 16.9 258.63 16.46 258.41 15.73H256.77C256.616 16.1613 256.506 16.6068 256.44 17.06H255.37C255.37 16.96 255.65 16.21 256.2 14.79C256.75 13.37 257.03 12.59 257.03 12.44H258.37C258.37 12.58 258.62 13.34 259.12 14.76C259.62 16.16 259.87 16.93 259.87 17.06ZM263.1 13.85C263.1 13.34 262.76 13.09 262.08 13.09C261.92 13.09 261.74 13.11 261.55 13.14C261.58 13.59 261.59 14.09 261.59 14.66H261.79C262.66 14.66 263.09 14.39 263.09 13.85H263.1ZM264 13.65C264 14.22 263.8 14.63 263.38 14.9C262.845 15.2305 262.215 15.3714 261.59 15.3C261.59 15.75 261.61 16.33 261.63 17.06H260.63C260.694 15.5206 260.694 13.9793 260.63 12.44H261.25C261.633 12.4438 262.017 12.4371 262.4 12.42C262.85 12.42 263.23 12.52 263.54 12.72C263.85 12.92 264.01 13.24 264.01 13.65H264ZM267.35 13.85C267.35 13.34 267.01 13.09 266.34 13.09C266.17 13.09 265.99 13.11 265.81 13.14C265.83 13.59 265.85 14.09 265.85 14.66H266.05C266.91 14.66 267.35 14.39 267.35 13.85ZM268.26 13.65C268.26 14.22 268.06 14.63 267.63 14.9C267.098 15.2283 266.471 15.3691 265.85 15.3C265.85 15.75 265.86 16.33 265.89 17.06H264.89C264.954 15.5206 264.954 13.9793 264.89 12.44H265.51C265.893 12.4438 266.277 12.4371 266.66 12.42C267.11 12.42 267.49 12.52 267.8 12.72C268.1 12.92 268.26 13.24 268.26 13.65ZM274.24 14.77C274.24 14.27 274.11 13.87 273.86 13.57C273.61 13.26 273.29 13.11 272.92 13.11C272.58 13.11 272.28 13.26 272.04 13.57C271.8 13.87 271.68 14.27 271.68 14.74C271.68 15.24 271.81 15.64 272.06 15.94C272.32 16.25 272.63 16.41 273 16.41C273.34 16.41 273.64 16.25 273.88 15.94C274.12 15.63 274.24 15.24 274.24 14.77ZM275.22 14.67C275.22 15.39 275 15.99 274.55 16.47C274.11 16.95 273.55 17.19 272.9 17.19C272.28 17.19 271.75 16.97 271.33 16.53C270.91 16.09 270.7 15.53 270.7 14.86C270.7 14.13 270.92 13.53 271.37 13.06C271.81 12.57 272.37 12.34 273.02 12.34C273.64 12.34 274.17 12.55 274.59 12.99C275.01 13.43 275.22 13.99 275.22 14.67ZM280.03 17.06H279.15C279.15 16.96 278.82 16.46 278.17 15.52C277.693 14.9097 277.303 14.2367 277.01 13.52H276.95C277.01 14.04 277.05 14.51 277.05 14.92C277.05 15.51 277.05 16.22 277.09 17.06H276.22C276.29 15.5208 276.29 13.9792 276.22 12.44H277.27C277.27 12.57 277.57 13.07 278.15 13.94C278.584 14.5265 278.943 15.1647 279.22 15.84H279.27C279.22 15.3 279.19 14.84 279.19 14.41C279.19 13.77 279.17 13.11 279.14 12.44H280.03C279.963 13.9792 279.963 15.5207 280.03 17.06ZM238.18 31.86C238.18 34.15 237.5 35.98 236.14 37.34C235.363 38.147 234.424 38.7807 233.385 39.1995C232.346 39.6183 231.23 39.8127 230.11 39.77C228.988 39.79 227.874 39.5814 226.836 39.1567C225.797 38.732 224.856 38.1003 224.07 37.3C223.259 36.5085 222.619 35.5584 222.19 34.509C221.762 33.4595 221.554 32.3332 221.58 31.2C221.58 28.76 222.41 26.73 224.07 25.08C224.857 24.2815 225.799 23.6515 226.837 23.2286C227.875 22.8057 228.989 22.5986 230.11 22.62C231.28 22.62 232.41 22.85 233.48 23.31C234.465 23.7104 235.342 24.3374 236.04 25.14L234.6 26.6C234.05 25.9513 233.358 25.438 232.578 25.0999C231.797 24.7617 230.949 24.6078 230.1 24.65C228.38 24.65 226.89 25.25 225.63 26.47C225 27.0818 224.506 27.8188 224.179 28.6335C223.851 29.4482 223.698 30.3225 223.73 31.2C223.73 33.15 224.36 34.72 225.63 35.94C226.218 36.5261 226.917 36.989 227.687 37.3016C228.456 37.6141 229.28 37.7699 230.11 37.76C231.94 37.76 233.47 37.15 234.69 35.93C235.49 35.13 235.94 34.03 236.07 32.6H230.1V30.63H238.05C238.127 31.0389 238.167 31.4539 238.17 31.87L238.18 31.86ZM242.25 36.73C242.579 37.0824 242.977 37.3629 243.419 37.5539C243.861 37.745 244.338 37.8424 244.82 37.84C245.82 37.84 246.68 37.47 247.4 36.73C247.772 36.3372 248.061 35.8736 248.25 35.3668C248.439 34.86 248.524 34.3203 248.5 33.78C248.5 32.56 248.13 31.58 247.4 30.84C247.07 30.4868 246.67 30.2059 246.226 30.0148C245.782 29.8238 245.303 29.7268 244.82 29.73C243.83 29.73 242.97 30.1 242.25 30.83C241.878 31.2227 241.589 31.6863 241.4 32.1931C241.211 32.6999 241.126 33.2396 241.15 33.78C241.15 35.01 241.52 35.98 242.25 36.73ZM240.68 29.51C241.212 28.9512 241.855 28.511 242.569 28.2181C243.282 27.9251 244.049 27.7861 244.82 27.81C246.51 27.81 247.89 28.37 248.98 29.51C249.518 30.0799 249.938 30.7506 250.216 31.4833C250.494 32.2161 250.625 32.9966 250.6 33.78C250.6 35.5 250.06 36.92 248.97 38.06C248.437 38.62 247.792 39.0609 247.077 39.3539C246.362 39.6469 245.593 39.7853 244.82 39.76C244.049 39.7839 243.282 39.6448 242.569 39.3519C241.855 39.0589 241.212 38.6187 240.68 38.06C240.139 37.4896 239.716 36.8177 239.437 36.0831C239.157 35.3485 239.025 34.5657 239.05 33.78C239.05 32.08 239.59 30.65 240.68 29.51ZM254.51 36.73C254.84 37.0836 255.239 37.3649 255.683 37.556C256.128 37.747 256.607 37.8438 257.09 37.84C258.09 37.84 258.94 37.47 259.67 36.73C260.04 36.3364 260.327 35.8725 260.515 35.3657C260.702 34.8589 260.785 34.3196 260.76 33.78C260.76 32.56 260.39 31.58 259.66 30.84C259.331 30.4881 258.933 30.2078 258.491 30.0168C258.049 29.8258 257.572 29.7282 257.09 29.73C256.09 29.73 255.24 30.1 254.51 30.83C254.14 31.2235 253.853 31.6875 253.665 32.1943C253.478 32.701 253.395 33.2403 253.42 33.78C253.42 35.01 253.78 35.98 254.52 36.73H254.51ZM252.94 29.51C253.473 28.95 254.118 28.509 254.833 28.216C255.548 27.923 256.317 27.7846 257.09 27.81C258.77 27.81 260.15 28.37 261.24 29.51C261.78 30.0791 262.202 30.7494 262.481 31.4822C262.761 32.215 262.893 32.9959 262.87 33.78C262.87 35.5 262.32 36.92 261.24 38.06C260.707 38.62 260.062 39.0609 259.347 39.3539C258.632 39.6469 257.863 39.7853 257.09 39.76C256.317 39.7853 255.548 39.6469 254.833 39.3539C254.118 39.0609 253.473 38.62 252.94 38.06C252.399 37.4896 251.976 36.8177 251.697 36.0831C251.417 35.3485 251.285 34.5657 251.31 33.78C251.31 32.08 251.85 30.65 252.94 29.51ZM269.26 37.84C270.26 37.84 271.1 37.47 271.8 36.74C272.523 35.9291 272.897 34.8652 272.84 33.78C272.84 32.55 272.49 31.56 271.8 30.83C271.479 30.4767 271.087 30.1959 270.649 30.0063C270.211 29.8166 269.737 29.7224 269.26 29.73C268.28 29.73 267.44 30.1 266.74 30.83C266.013 31.6357 265.636 32.6964 265.69 33.78C265.69 35.01 266.04 35.98 266.74 36.73C267.44 37.47 268.28 37.84 269.26 37.84ZM269.1 44.72C267.934 44.769 266.787 44.416 265.85 43.72C265.064 43.1243 264.442 42.3401 264.04 41.44L265.96 40.64C266.18 41.24 266.56 41.76 267.14 42.17C267.71 42.59 268.37 42.79 269.1 42.79C270.26 42.79 271.18 42.44 271.84 41.75C272.51 41.05 272.84 40.11 272.84 38.92V37.84H272.74C272.38 38.39 271.86 38.85 271.19 39.22C270.2 39.7342 269.066 39.8985 267.971 39.6861C266.876 39.4737 265.885 38.897 265.16 38.05C264.098 36.8861 263.532 35.3546 263.58 33.78C263.58 32.08 264.1 30.67 265.16 29.52C265.887 28.6744 266.877 28.0989 267.972 27.8865C269.066 27.6742 270.2 27.8375 271.19 28.35C271.86 28.72 272.38 29.18 272.75 29.73H272.84V28.17H274.86V38.83C274.86 40.75 274.3 42.22 273.18 43.22C272.06 44.221 270.601 44.7575 269.1 44.72ZM276.85 39.4H278.96V22.99H276.86L276.85 39.4ZM288.95 32.43C288.878 31.7362 288.567 31.0891 288.07 30.6C287.53 30.02 286.72 29.73 285.65 29.73C284.87 29.73 284.2 29.97 283.62 30.46C283.03 30.9771 282.618 31.6661 282.44 32.43H288.95ZM285.93 39.77C284.23 39.77 282.85 39.2 281.79 38.07C280.712 36.9071 280.136 35.3651 280.19 33.78C280.19 32.15 280.71 30.74 281.74 29.56C282.227 28.9894 282.835 28.5352 283.52 28.2307C284.206 27.9261 284.95 27.7789 285.7 27.8C287.36 27.8 288.7 28.34 289.7 29.43C290.7 30.51 291.2 31.97 291.2 33.78L291.18 34.18H282.31C282.319 35.1843 282.725 36.1443 283.44 36.85C284.14 37.51 284.94 37.85 285.88 37.85C287.39 37.85 288.42 37.2 288.95 35.92L290.83 36.69C290.47 37.57 289.86 38.29 289.03 38.89C288.18 39.47 287.15 39.77 285.93 39.77ZM299.5 30.73H303.03C303.91 30.73 304.63 30.43 305.16 29.84C305.7 29.24 305.96 28.59 305.96 27.87C305.96 27.15 305.7 26.49 305.16 25.9C304.63 25.3 303.91 25 303.03 25H299.5V30.73ZM299.5 39.4H297.39V22.99H302.99C304.37 22.99 305.58 23.45 306.59 24.37C307.085 24.8067 307.478 25.3463 307.742 25.9508C308.006 26.5554 308.135 27.2104 308.12 27.87C308.12 29.27 307.61 30.44 306.59 31.37C305.612 32.2752 304.323 32.7693 302.99 32.75H299.49V39.4H299.5ZM309.5 39.4H311.6V22.99H309.5V39.4ZM317.38 37.84C318.25 37.84 319.04 37.52 319.75 36.87C320.084 36.5871 320.353 36.2349 320.538 35.8378C320.723 35.4406 320.819 35.008 320.82 34.57C320.22 34.07 319.32 33.83 318.14 33.83C317.11 33.83 316.34 34.05 315.82 34.49C315.581 34.6742 315.386 34.9103 315.251 35.1805C315.116 35.4506 315.044 35.7479 315.04 36.05C315.04 36.6 315.28 37.04 315.75 37.36C316.22 37.68 316.77 37.84 317.38 37.84ZM317.04 39.77C315.84 39.77 314.84 39.42 314.04 38.73C313.24 38.05 312.84 37.13 312.84 36.01C312.84 34.78 313.31 33.83 314.26 33.13C315.283 32.4129 316.511 32.0479 317.76 32.09C319.01 32.09 320.02 32.32 320.82 32.77V32.45C320.835 32.0774 320.766 31.7063 320.619 31.3637C320.472 31.0211 320.25 30.7157 319.97 30.47C319.391 29.969 318.645 29.7047 317.88 29.73C317.28 29.73 316.72 29.87 316.22 30.16C315.72 30.46 315.38 30.85 315.2 31.36L313.27 30.53C313.53 29.86 314.05 29.23 314.81 28.66C315.698 28.049 316.763 27.7469 317.84 27.8C319.146 27.7565 320.421 28.2063 321.41 29.06C321.893 29.5111 322.27 30.0631 322.516 30.6767C322.761 31.2902 322.868 31.9503 322.83 32.61V39.4H320.82V37.84H320.72C320.33 38.459 319.783 38.9637 319.135 39.3027C318.487 39.6417 317.761 39.8029 317.03 39.77H317.04ZM327.42 44.35H325.24L327.85 38.69L323.22 28.17H325.52L328.86 36.24H328.91L332.16 28.17H334.46L327.42 44.35ZM182.24 30.91V15.2C182.24 14.55 182.36 13.97 182.82 13.48C183 13.29 183.12 13.24 183.34 13.46L193.94 24.25L200.82 31.22C201.04 31.44 201.06 31.56 200.82 31.79C195.196 37.3797 189.583 42.9797 183.98 48.59C183.64 48.93 183.4 48.89 183.07 48.64C182.795 48.4287 182.575 48.1534 182.43 47.8379C182.286 47.5225 182.22 47.1765 182.24 46.83V37.5V30.91ZM184.26 12.87C184.69 12.87 184.99 12.99 185.28 13.16L206.82 25.22C207.15 25.4 207.15 25.51 206.89 25.76L202.1 30.52C201.93 30.7 201.82 30.8 201.6 30.56L184.43 13.1L184.25 12.87H184.26ZM185.86 48.45C191.08 43.18 196.3 37.9 201.5 32.63C201.82 32.31 201.97 32.35 202.26 32.65C203.584 34.0223 204.921 35.3824 206.27 36.73C206.51 36.97 206.53 37.07 206.21 37.24L186.14 48.24C186.04 48.31 185.94 48.41 185.87 48.44L185.86 48.45ZM215.64 31.06C215.61 31.66 215.34 32.06 214.91 32.38C214.61 32.61 214.26 32.8 213.91 32.98L207.85 36.34C207.57 36.49 207.41 36.48 207.19 36.24C205.75 34.7598 204.3 33.2898 202.84 31.83C202.64 31.62 202.62 31.5 202.84 31.28C204.54 29.61 206.23 27.93 207.91 26.24C208.11 26.04 208.25 26.02 208.5 26.16L214.5 29.53C215.13 29.88 215.61 30.33 215.64 31.06Z" fill="#FB3B2D"/>
</svg>
